<svg xmlns="http://www.w3.org/2000/svg" xmlns:xlink="http://www.w3.org/1999/xlink" id="Capa_1" x="0" y="0" version="1.1" viewBox="0 0 512 512" xml:space="preserve" style="enable-background:new 0 0 512 512"><circle style="fill:#ff127f" cx="256" cy="256" r="256"/><path style="fill:#b10853" d="M512,256c0-19.2-2.13-37.901-6.137-55.894L383.757,78H229.858L128.243,253.962l66.975,67.388	l-37.243,115.607l73.904,73.904C239.822,511.603,247.864,512,256,512C397.385,512,512,397.385,512,256z"/><polygon style="fill:#ffe670" points="383.757 78 229.858 78 128.243 253.962 216.928 253.962 157.976 436.957 352.166 219.539 287.746 219.539"/><polygon style="fill:#fec000" points="287.75 219.54 352.17 219.54 256 327.21 256 78 383.76 78"/></svg>